<svg xmlns="http://www.w3.org/2000/svg" viewBox="0 0 591 420" width="591" height="420" preserveAspectRatio="xMidYMid slice" style="width: 100%; height: 100%; transform: translate3d(0px, 0px, 0px);">
    <defs>
        <clipPath id="__lottie_element_76">
            <rect width="591" height="420" x="0" y="0"></rect>
        </clipPath>
    </defs>
    <g clip-path="url(#__lottie_element_76)">
        <g transform="matrix(0.5346229076385498,-0.8450907468795776,0.8450907468795776,0.5346229076385498,297.5,211)" opacity="1" style="display: block;">
            <g opacity="1" transform="matrix(1,0,0,1,0,0)">
                <path fill="rgb(241,244,254)" fill-opacity="1" d=" M0,196 C56.150001525878906,196 99.4000015258789,168.80999755859375 135.1300048828125,130.97999572753906 C148.3699951171875,116.97000122070312 165.49000549316406,103.93000030517578 175.57000732421875,87.18000030517578 C190.75,61.959999084472656 196,31.309999465942383 196,0 C196,-31.309999465942383 195.0800018310547,-61.349998474121094 185.05999755859375,-87.0999984741211 C177.11000061035156,-107.5 162.33999633789062,-124.8499984741211 145.63999938964844,-140.63999938964844 C127.37999725341797,-157.89999389648438 101.83999633789062,-169.17999267578125 75.1500015258789,-178.91000366210938 C50.5,-187.88999938964844 25.030000686645508,-196 0,-196 C-21.3799991607666,-196 -42.54999923706055,-192.6999969482422 -61.380001068115234,-185.44000244140625 C-82.12000274658203,-177.4600067138672 -100.23999786376953,-164.89999389648438 -117.55999755859375,-151.5800018310547 C-143.16000366210938,-131.89999389648438 -159.74000549316406,-105.0199966430664 -173.58999633789062,-76.2699966430664 C-184.97000122070312,-52.68000030517578 -196,-28.549999237060547 -196,0 C-196,32.13999938964844 -193.8699951171875,64.58000183105469 -182.44000244140625,91.52999877929688 C-174.07000732421875,111.25 -159.3800048828125,127.13999938964844 -143.64999389648438,142.22000122070312 C-125.63999938964844,159.47000122070312 -100.52999877929688,170.0500030517578 -74.91000366210938,179.2899932861328 C-50.459999084472656,188.1199951171875 -25.700000762939453,196 0,196z"></path>
            </g>
        </g>
        <g transform="matrix(1,0,0,1,159.94456481933594,198)" opacity="0.007506400000008426" style="display: none;">
            <g opacity="1" transform="matrix(1,0,0,1,0,0)">
                <path fill="#3d464d" fill-opacity="1" d=" M18,-11.65999984741211 C27.940000534057617,-11.65999984741211 36,-3.680000066757202 36,6.170000076293945 C36,16.020000457763672 27.940000534057617,24 18,24 C12.579999923706055,24 -5.550000190734863,24 -11.770000457763672,24 C-25.149999618530273,24 -36,13.25 -36,0 C-36,-13.25 -25.149999618530273,-24 -11.770000457763672,-24 C-1.9700000286102295,-24 6.46999979019165,-18.239999771118164 10.289999961853027,-9.9399995803833 C12.630000114440918,-11.039999961853027 15.239999771118164,-11.65999984741211 18,-11.65999984741211z"></path>
            </g>
        </g>
        <g transform="matrix(1,0,0,1,189.4534912109375,84)" opacity="0.007294133333341151" style="display: none;">
            <g opacity="1" transform="matrix(1,0,0,1,0,0)">
                <path fill="#3d464d" fill-opacity="1" d=" M-18.760000228881836,17 C-24.139999389648438,17 -28.5,12.649999618530273 -28.5,7.289999961853027 C-28.5,1.9199999570846558 -24.139999389648438,-2.430000066757202 -18.760000228881836,-2.430000066757202 C-17.700000762939453,-2.430000066757202 -16.68000030517578,-2.259999990463257 -15.720000267028809,-1.9500000476837158 C-14.75,-10.420000076293945 -7.539999961853027,-17 1.2200000286102295,-17 C10.640000343322754,-17 18.270000457763672,-9.390000343322754 18.270000457763672,0 C18.270000457763672,0.05999999865889549 18.270000457763672,0.10999999940395355 18.270000457763672,0.17000000178813934 C18.81999969482422,0.05999999865889549 19.389999389648438,0 19.969999313354492,0 C24.68000030517578,0 28.5,3.809999942779541 28.5,8.5 C28.5,13.1899995803833 24.68000030517578,17 19.969999313354492,17 C16.799999237060547,17 -15.25,17 -18.760000228881836,17z"></path>
            </g>
        </g>
        <g style="display: none;">
            <g>
                <path></path>
            </g>
        </g>
        <g transform="matrix(1,0,0,1,160.06809997558594,198)" opacity="0.008698933333341046" style="display: none;">
            <g opacity="1" transform="matrix(1,0,0,1,0,0)">
                <path fill="#3d464d" fill-opacity="1" d=" M18,-11.65999984741211 C27.940000534057617,-11.65999984741211 36,-3.680000066757202 36,6.170000076293945 C36,16.020000457763672 27.940000534057617,24 18,24 C12.579999923706055,24 -5.550000190734863,24 -11.770000457763672,24 C-25.149999618530273,24 -36,13.25 -36,0 C-36,-13.25 -25.149999618530273,-24 -11.770000457763672,-24 C-1.9700000286102295,-24 6.46999979019165,-18.239999771118164 10.289999961853027,-9.9399995803833 C12.630000114440918,-11.039999961853027 15.239999771118164,-11.65999984741211 18,-11.65999984741211z"></path>
            </g>
        </g>
        <g transform="matrix(1,0,0,1,189.57041931152344,84)" opacity="0.008474666666674721" style="display: none;">
            <g opacity="1" transform="matrix(1,0,0,1,0,0)">
                <path fill="#3d464d" fill-opacity="1" d=" M-18.760000228881836,17 C-24.139999389648438,17 -28.5,12.649999618530273 -28.5,7.289999961853027 C-28.5,1.9199999570846558 -24.139999389648438,-2.430000066757202 -18.760000228881836,-2.430000066757202 C-17.700000762939453,-2.430000066757202 -16.68000030517578,-2.259999990463257 -15.720000267028809,-1.9500000476837158 C-14.75,-10.420000076293945 -7.539999961853027,-17 1.2200000286102295,-17 C10.640000343322754,-17 18.270000457763672,-9.390000343322754 18.270000457763672,0 C18.270000457763672,0.05999999865889549 18.270000457763672,0.10999999940395355 18.270000457763672,0.17000000178813934 C18.81999969482422,0.05999999865889549 19.389999389648438,0 19.969999313354492,0 C24.68000030517578,0 28.5,3.809999942779541 28.5,8.5 C28.5,13.1899995803833 24.68000030517578,17 19.969999313354492,17 C16.799999237060547,17 -15.25,17 -18.760000228881836,17z"></path>
            </g>
        </g>
        <g transform="matrix(1,0,0,1,170.660888671875,277)" opacity="0.008328000000006313" style="display: none;">
            <g opacity="1" transform="matrix(1,0,0,1,0,0)">
                <path fill="#3d464d" fill-opacity="1" d=" M-48.47999954223633,26 C-52.90999984741211,26 -56.5,22.34000015258789 -56.5,17.829999923706055 C-56.5,13.319999694824219 -52.90999984741211,9.65999984741211 -48.47999954223633,9.65999984741211 C-46.869998931884766,9.65999984741211 -45.36000061035156,10.140000343322754 -44.11000061035156,10.979999542236328 C-44.02000045776367,2.8499999046325684 -37.52000045776367,-3.7100000381469727 -29.530000686645508,-3.7100000381469727 C-26.850000381469727,-3.7100000381469727 -24.34000015258789,-2.9800000190734863 -22.18000030517578,-1.7000000476837158 C-21.329999923706055,-15.260000228881836 -10.25,-26 3.2799999713897705,-26 C12.869999885559082,-26 21.219999313354492,-20.610000610351562 25.579999923706055,-12.640000343322754 C28.649999618530273,-14.520000457763672 32.25,-15.600000381469727 36.09000015258789,-15.600000381469727 C47.36000061035156,-15.600000381469727 56.5,-6.289999961853027 56.5,5.199999809265137 C56.5,16.690000534057617 47.36000061035156,26 36.09000015258789,26 C29.979999542236328,26 -44.95000076293945,26 -48.47999954223633,26z"></path>
            </g>
        </g>
        <g style="display: block;" transform="matrix(1,0,0,1,318.9413757324219,198)" opacity="0.4">
            <g opacity="1" transform="matrix(1,0,0,1,0,0)">
                <path fill="#3d464d" fill-opacity="1" d=" M18,-11.65999984741211 C27.940000534057617,-11.65999984741211 36,-3.680000066757202 36,6.170000076293945 C36,16.020000457763672 27.940000534057617,24 18,24 C12.579999923706055,24 -5.550000190734863,24 -11.770000457763672,24 C-25.149999618530273,24 -36,13.25 -36,0 C-36,-13.25 -25.149999618530273,-24 -11.770000457763672,-24 C-1.9700000286102295,-24 6.46999979019165,-18.239999771118164 10.289999961853027,-9.9399995803833 C12.630000114440918,-11.039999961853027 15.239999771118164,-11.65999984741211 18,-11.65999984741211z"></path>
            </g>
        </g>
        <g style="display: block;" transform="matrix(1,0,0,1,303.20953369140625,84)" opacity="0.4">
            <g opacity="1" transform="matrix(1,0,0,1,0,0)">
                <path fill="#3d464d" fill-opacity="1" d=" M-18.760000228881836,17 C-24.139999389648438,17 -28.5,12.649999618530273 -28.5,7.289999961853027 C-28.5,1.9199999570846558 -24.139999389648438,-2.430000066757202 -18.760000228881836,-2.430000066757202 C-17.700000762939453,-2.430000066757202 -16.68000030517578,-2.259999990463257 -15.720000267028809,-1.9500000476837158 C-14.75,-10.420000076293945 -7.539999961853027,-17 1.2200000286102295,-17 C10.640000343322754,-17 18.270000457763672,-9.390000343322754 18.270000457763672,0 C18.270000457763672,0.05999999865889549 18.270000457763672,0.10999999940395355 18.270000457763672,0.17000000178813934 C18.81999969482422,0.05999999865889549 19.389999389648438,0 19.969999313354492,0 C24.68000030517578,0 28.5,3.809999942779541 28.5,8.5 C28.5,13.1899995803833 24.68000030517578,17 19.969999313354492,17 C16.799999237060547,17 -15.25,17 -18.760000228881836,17z"></path>
            </g>
        </g>
        <g style="display: block;" transform="matrix(1,0,0,1,226.64877319335938,277)" opacity="0.4">
            <g opacity="1" transform="matrix(1,0,0,1,0,0)">
                <path fill="#3d464d" fill-opacity="1" d=" M-48.47999954223633,26 C-52.90999984741211,26 -56.5,22.34000015258789 -56.5,17.829999923706055 C-56.5,13.319999694824219 -52.90999984741211,9.65999984741211 -48.47999954223633,9.65999984741211 C-46.869998931884766,9.65999984741211 -45.36000061035156,10.140000343322754 -44.11000061035156,10.979999542236328 C-44.02000045776367,2.8499999046325684 -37.52000045776367,-3.7100000381469727 -29.530000686645508,-3.7100000381469727 C-26.850000381469727,-3.7100000381469727 -24.34000015258789,-2.9800000190734863 -22.18000030517578,-1.7000000476837158 C-21.329999923706055,-15.260000228881836 -10.25,-26 3.2799999713897705,-26 C12.869999885559082,-26 21.219999313354492,-20.610000610351562 25.579999923706055,-12.640000343322754 C28.649999618530273,-14.520000457763672 32.25,-15.600000381469727 36.09000015258789,-15.600000381469727 C47.36000061035156,-15.600000381469727 56.5,-6.289999961853027 56.5,5.199999809265137 C56.5,16.690000534057617 47.36000061035156,26 36.09000015258789,26 C29.979999542236328,26 -44.95000076293945,26 -48.47999954223633,26z"></path>
            </g>
        </g>
        <g transform="matrix(1,0,0,1,103.41999816894531,207.83999633789062)" opacity="1" style="display: block;">
            <g opacity="1" transform="matrix(1,0,0,1,0,0)">
                <path fill="#ffd333" fill-opacity="1" d=" M6.079999923706055,18.399999618530273 C6.079999923706055,18.399999618530273 6.079999923706055,-50.08000183105469 6.079999923706055,-50.08000183105469 C6.079999923706055,-50.08000183105469 -46.08000183105469,18.399999618530273 -46.08000183105469,18.399999618530273 C-46.08000183105469,18.399999618530273 6.079999923706055,18.399999618530273 6.079999923706055,18.399999618530273z M-89.91999816894531,60.63999938964844 C-89.91999816894531,60.63999938964844 -89.91999816894531,9.4399995803833 -89.91999816894531,9.4399995803833 C-89.91999816894531,9.4399995803833 -3.5199999809265137,-103.83999633789062 -3.5199999809265137,-103.83999633789062 C-3.5199999809265137,-103.83999633789062 56.63999938964844,-103.83999633789062 56.63999938964844,-103.83999633789062 C56.63999938964844,-103.83999633789062 56.63999938964844,18.399999618530273 56.63999938964844,18.399999618530273 C56.63999938964844,18.399999618530273 89.91999816894531,18.399999618530273 89.91999816894531,18.399999618530273 C89.91999816894531,18.399999618530273 89.91999816894531,60.63999938964844 89.91999816894531,60.63999938964844 C89.91999816894531,60.63999938964844 56.63999938964844,60.63999938964844 56.63999938964844,60.63999938964844 C56.63999938964844,60.63999938964844 56.63999938964844,103.83999633789062 56.63999938964844,103.83999633789062 C56.63999938964844,103.83999633789062 6.079999923706055,103.83999633789062 6.079999923706055,103.83999633789062 C6.079999923706055,103.83999633789062 6.079999923706055,60.63999938964844 6.079999923706055,60.63999938964844 C6.079999923706055,60.63999938964844 -89.91999816894531,60.63999938964844 -89.91999816894531,60.63999938964844z"></path>
                <g opacity="1" transform="matrix(1,0,0,1,0,0)"></g>
            </g>
        </g>
        <g transform="matrix(1,0,0,1,493.55999755859375,207.83999633789062)" opacity="1" style="display: block;">
            <g opacity="1" transform="matrix(1,0,0,1,0,0)">
                <path fill="#ffd333" fill-opacity="1" d=" M6.079999923706055,18.399999618530273 C6.079999923706055,18.399999618530273 6.079999923706055,-50.08000183105469 6.079999923706055,-50.08000183105469 C6.079999923706055,-50.08000183105469 -46.08000183105469,18.399999618530273 -46.08000183105469,18.399999618530273 C-46.08000183105469,18.399999618530273 6.079999923706055,18.399999618530273 6.079999923706055,18.399999618530273z M-89.91999816894531,60.63999938964844 C-89.91999816894531,60.63999938964844 -89.91999816894531,9.4399995803833 -89.91999816894531,9.4399995803833 C-89.91999816894531,9.4399995803833 -3.5199999809265137,-103.83999633789062 -3.5199999809265137,-103.83999633789062 C-3.5199999809265137,-103.83999633789062 56.63999938964844,-103.83999633789062 56.63999938964844,-103.83999633789062 C56.63999938964844,-103.83999633789062 56.63999938964844,18.399999618530273 56.63999938964844,18.399999618530273 C56.63999938964844,18.399999618530273 89.91999816894531,18.399999618530273 89.91999816894531,18.399999618530273 C89.91999816894531,18.399999618530273 89.91999816894531,60.63999938964844 89.91999816894531,60.63999938964844 C89.91999816894531,60.63999938964844 56.63999938964844,60.63999938964844 56.63999938964844,60.63999938964844 C56.63999938964844,60.63999938964844 56.63999938964844,103.83999633789062 56.63999938964844,103.83999633789062 C56.63999938964844,103.83999633789062 6.079999923706055,103.83999633789062 6.079999923706055,103.83999633789062 C6.079999923706055,103.83999633789062 6.079999923706055,60.63999938964844 6.079999923706055,60.63999938964844 C6.079999923706055,60.63999938964844 -89.91999816894531,60.63999938964844 -89.91999816894531,60.63999938964844z"></path>
                <g opacity="1" transform="matrix(1,0,0,1,0,0)"></g>
            </g>
        </g>
        <g transform="matrix(0.9231770038604736,0.04422775283455849,-0.04422775283455849,0.9231770038604736,287.2808837890625,348.6399841308594)" opacity="1" style="display: block;">
            <g opacity="1" transform="matrix(1,0,0,1,0,0)">
                <g opacity="1" transform="matrix(1,0,0,1,0,0)"></g>
            </g>
        </g>
        <g transform="matrix(0.9231770038604736,0.04422775283455849,-0.04422775283455849,0.9231770038604736,295.1394958496094,240.84754943847656)" opacity="1" style="display: block;">
            <g opacity="1" transform="matrix(1,0,0,1,0,0)">
                <path fill="#3d464d" fill-opacity="1" d=" M-3.6740000247955322,20.788999557495117 C-13.223999977111816,20.788999557495117 -22.634000778198242,19.138999938964844 -31.45400047302246,15.83899974822998 C-44.73400115966797,10.869000434875488 -56.49399948120117,2.6989998817443848 -65.4540023803711,-7.790999889373779 C-67.09400177001953,-9.720999717712402 -68.67400360107422,-11.75100040435791 -70.15399932861328,-13.821000099182129 C-70.56400299072266,-14.401000022888184 -70.43399810791016,-15.201000213623047 -69.85399627685547,-15.621000289916992 C-69.27400207519531,-16.0310001373291 -68.46399688720703,-15.901000022888184 -68.05400085449219,-15.321000099182129 C-66.6240005493164,-13.310999870300293 -65.08399963378906,-11.340999603271484 -63.49399948120117,-9.470999717712402 C-54.81399917602539,0.6890000104904175 -43.42399978637695,8.598999977111816 -30.54400062561035,13.418999671936035 C-13.293999671936035,19.878999710083008 6.306000232696533,19.798999786376953 24.645999908447266,13.208999633789062 C42.34600067138672,6.848999977111816 57.75600051879883,-5.031000137329102 68.03600311279297,-20.22100067138672 C68.43599700927734,-20.81100082397461 69.23600006103516,-20.97100067138672 69.82599639892578,-20.570999145507812 C70.41600036621094,-20.17099952697754 70.57599639892578,-19.371000289916992 70.1760025024414,-18.7810001373291 C59.58599853515625,-3.13100004196167 43.736000061035156,9.08899974822998 25.516000747680664,15.638999938964844 C15.965999603271484,19.069000244140625 6.076000213623047,20.788999557495117 -3.6740000247955322,20.788999557495117"></path>
            </g>
        </g>
        
        
        <g transform="matrix(0.9231770038604736,0.04422775283455849,-0.04422775283455849,0.9231770038604736,294.4058532714844,186.61134338378906)" opacity="1" style="display: block;">
            <g opacity="1" transform="matrix(1,0,0,1,0,0)">
                <path fill="#ffd333" fill-opacity="1" d=" M83.9229965209961,0.07500000298023224 C85.24299621582031,56.6349983215332 22.89299964904785,98.82499694824219 -29.64699935913086,79.15499877929688 C-42.5369987487793,74.33499908447266 -54.176998138427734,66.36499786376953 -63.12699890136719,55.8849983215332 C-82.09700012207031,33.654998779296875 -89.41699981689453,2.125 -79.56700134277344,-25.735000610351562 C-60.65700149536133,-79.19499969482422 11.602999687194824,-104.40499877929688 55.37300109863281,-64.44499969482422 C73.48300170898438,-47.92499923706055 83.37300109863281,-23.895000457763672 83.9229965209961,0.07500000298023224"></path>
            </g>
        </g>
        <g transform="matrix(0.9231770038604736,0.04422775283455849,-0.04422775283455849,0.9231770038604736,314.5244140625,204.90504455566406)" opacity="0.3" style="display: block;">
            <g opacity="1" transform="matrix(1,0,0,1,0,0)">
                <path fill="#3d464d" fill-opacity="1" d=" M-27.937999725341797,51.374000549316406 C-36.8380012512207,51.374000549316406 -44.05799865722656,44.15399932861328 -44.05799865722656,35.25400161743164 C-44.05799865722656,26.3439998626709 -36.8380012512207,19.124000549316406 -27.937999725341797,19.124000549316406 C-6.01800012588501,19.124000549316406 11.821999549865723,1.2740000486373901 11.821999549865723,-20.6560001373291 C11.821999549865723,-24.18600082397461 11.362000465393066,-27.68600082397461 10.45199966430664,-31.04599952697754 C8.142000198364258,-39.645999908447266 13.232000350952148,-48.49599838256836 21.82200050354004,-50.816001892089844 C30.422000885009766,-53.13600158691406 39.262001037597656,-48.04600143432617 41.582000732421875,-39.44599914550781 C43.22200012207031,-33.34600067138672 44.0620002746582,-27.025999069213867 44.0620002746582,-20.6560001373291 C44.0620002746582,19.06399917602539 11.76200008392334,51.374000549316406 -27.937999725341797,51.374000549316406"></path>
            </g>
        </g>
        <g transform="matrix(0.9231770038604736,0.04422775283455849,-0.04422775283455849,0.9231770038604736,277.99383544921875,125.32921600341797)" opacity="1" style="display: block;">
            <g opacity="1" transform="matrix(1,0,0,1,0,0)">
                <path fill="#3d464d" fill-opacity="1" d=" M-5.802000045776367,4.314000129699707 C-6.831999778747559,4.314000129699707 -7.802000045776367,3.7039999961853027 -8.20199966430664,2.684000015258789 C-8.722000122070312,1.3639999628067017 -8.081999778747559,-0.13600000739097595 -6.751999855041504,-0.6660000085830688 C-2.881999969482422,-2.2060000896453857 1.1679999828338623,-3.4159998893737793 5.2779998779296875,-4.265999794006348 C6.677999973297119,-4.546000003814697 8.038000106811523,-3.6559998989105225 8.32800006866455,-2.25600004196167 C8.618000030517578,-0.8560000061988831 7.7179999351501465,0.5040000081062317 6.317999839782715,0.7940000295639038 C2.497999906539917,1.5839999914169312 -1.2619999647140503,2.7039999961853027 -4.8520002365112305,4.133999824523926 C-5.1620001792907715,4.254000186920166 -5.48199987411499,4.314000129699707 -5.802000045776367,4.314000129699707"></path>
            </g>
        </g>
        <g transform="matrix(0.9231770038604736,0.04422775283455849,-0.04422775283455849,0.9231770038604736,243.4017333984375,173.03280639648438)" opacity="1" style="display: block;">
            <g opacity="1" transform="matrix(1,0,0,1,0,0)">
                <path fill="#3d464d" fill-opacity="1" d=" M-6.86899995803833,46.005001068115234 C-7.809000015258789,46.005001068115234 -8.718999862670898,45.48500061035156 -9.178999900817871,44.584999084472656 C-11.98900032043457,38.98500061035156 -14.069000244140625,33.01499938964844 -15.33899974822998,26.825000762939453 C-20.999000549316406,-0.6549999713897705 -9.98900032043457,-29.045000076293945 12.720999717712402,-45.51499938964844 C13.871000289916992,-46.35499954223633 15.480999946594238,-46.095001220703125 16.320999145507812,-44.935001373291016 C17.150999069213867,-43.78499984741211 16.900999069213867,-42.17499923706055 15.741000175476074,-41.334999084472656 C-5.328999996185303,-26.05500030517578 -15.538999557495117,0.2849999964237213 -10.288999557495117,25.774999618530273 C-9.109000205993652,31.524999618530273 -7.178999900817871,37.07500076293945 -4.568999767303467,42.26499938964844 C-3.928999900817871,43.53499984741211 -4.439000129699707,45.084999084472656 -5.709000110626221,45.724998474121094 C-6.089000225067139,45.915000915527344 -6.479000091552734,46.005001068115234 -6.86899995803833,46.005001068115234"></path>
            </g>
        </g>
    </g>
</svg>