<svg fill="none" height="120" viewBox="0 0 120 120" width="120" xmlns="http://www.w3.org/2000/svg"><g fill="#fff"><path d="m77.7524 14.9378c.0479.4313.422.7674.8765.7674h6.1935l.0961-.0051c.4418-.0468.7856-.4125.7856-.8561v-1.9978l-.0051-.0938c-.0479-.4315-.4221-.7673-.8766-.7673l-2.8405.0002-.0008-1.1241-.0052-.0939c-.0479-.4315-.422-.7673-.8768-.7673h-2.47l-.0961.0051c-.4418.0467-.7856.4121-.7856.8561l-.0002 3.9828z"/><path d="m110.254 34.586c-.047-.4313-.422-.7674-.876-.7674h-6.194l-.096.0051c-.441.0468-.785.4125-.785.8561v1.9978l.005.0938c.048.4315.422.7673.876.7673l2.841-.0002.001 1.1241.005.0939c.048.4315.422.7673.877.7673h2.47l.096-.005c.442-.0468.785-.4122.785-.8562l.001-3.9828z"/><path d="m97.2623 33.8399c.4398 0 .7639.286.8079.6972l.0051.0971v2.3829c0 .4296-.2926.7462-.7136.7892l-.0994.0051h-6.5042c-.4399 0-.7639-.2859-.808-.6973l-.0051-.097v-2.3829c0-.4296.2927-.7463.7137-.7893l.0994-.005z"/><path d="m59.4446 12.2931c-.0441-.4112-.3683-.6972-.8079-.6972h-2.8456l-.0994.005c-.4209.043-.7137.3598-.7137.7893v2.3829l.0051.0971c.0441.4113.3683.6972.808.6972h2.8456l.0993-.005c.4209-.0431.7137-.3596.7137-.7893v-2.3829z"/><path d="m15.1303 15.571c3.3717 0 5.597 2.1055 5.6883 5.3514l.0029.2087v4.7658c0 3.294-2.1551 5.4681-5.4776 5.5572l-.2136.0029h-7.31728c-.4392 0-.76376-.2863-.8079-.6973l-.00512-.097v-2.3829c0-.4294.29319-.7462.71378-.7893l.09924-.005h7.31728c1.0602 0 1.5799-.4631 1.6231-1.4507l.003-.1379v-4.7658c0-1.0356-.4737-1.5435-1.4849-1.5857l-.1412-.0029h-7.31728c-.4392 0-.76376-.2864-.8079-.6973l-.00512-.097v-2.3829c0-.4292.29319-.7462.71378-.7893l.09924-.005z"/><path clip-rule="evenodd" d="m31.3956 22.7671v4.7876h-1.6264c-1.3473 0-2.4396-1.0718-2.4396-2.3938v-13.565c0-.4407-.364-.798-.8131-.798h-2.4396c-.4491 0-.8132.3573-.8132.798v13.565c0 3.5255 2.9126 6.3835 6.5055 6.3835h17.4835c1.4749 0 2.8275-.5137 3.8822-1.3688l.7232 1.0251c.1519.2152.4017.3437.6686.3437h4.8596c1.8506 0 3.5207-.7582 4.7053-1.9753l1.1511 1.6316c.1519.2152.4017.3437.6686.3437h4.8596c1.6073 0 3.0784-.5719 4.2135-1.5197l.8297 1.176c.1519.2152.4018.3437.6686.3437h3.2215c1.6143 0 3.0912-.5769 4.2283-1.5321l.8384 1.1884c.1519.2152.4018.3437.6686.3437h.782c1.6949 0 3.2384-.636 4.3962-1.678l.6905 1.2584c.1418.2584.4168.4196.716.4196h5.6131c1.6039 0 3.0529-.6509 4.0876-1.6982l.9561 1.3545c.151.2152.401.3437.668.3437h4.86c3.593 0 6.505-2.858 6.505-6.3835v-4.7877c0-.4407-.364-.7979-.813-.7979h-2.439c-.45 0-.814.3572-.814.7979v4.7877c0 1.322-1.092 2.3938-2.439 2.3938h-5.115c.153-.5057.236-1.0413.236-1.5959v-5.5856c0-.4407-.364-.7979-.814-.7979h-2.4391c-.4491 0-.8132.3572-.8132.7979v5.5856c0 .8814-.7281 1.5959-1.6264 1.5959h-4.8791v-7.1815c0-.4407-.3641-.7979-.8132-.7979h-2.4707c-.4491 0-.8132.3572-.8132.7979v4.7877c0 1.322-1.0923 2.3938-2.4396 2.3938h-.4846c.3049-.7392.4728-1.5473.4728-2.3938v-4.7877c0-.4407-.3641-.7979-.8132-.7979h-2.4395c-.4491 0-.8132.3572-.8132.7979v4.7877c0 1.322-1.0922 2.3938-2.4396 2.3938h-2.9007c.305-.7392.4729-1.5473.4729-2.3938v-4.7877c0-.4407-.3641-.7979-.8132-.7979h-2.4395c-.4492 0-.8132.3572-.8132.7979v4.7877c0 1.322-1.0923 2.3938-2.4396 2.3938h-5.352c.305-.7392.4729-1.5473.4729-2.3938v-4.7877c0-.4407-.3641-.7979-.8132-.7979h-2.4395c-.4492 0-.8132.3572-.8132.7979v4.7877c0 1.322-1.0923 2.3938-2.4396 2.3938h-4.3817c.2247-.624.347-1.2954.347-1.9949 0-3.3051-2.7305-5.9845-6.0989-5.9845h-3.7164c-1.1249-1.908-3.2273-3.1918-5.6352-3.1918-3.5929 0-6.5055 2.858-6.5055 6.3836zm6.5055-2.3939c-1.3473 0-2.4396 1.0718-2.4396 2.3939v4.7876h4.8791v-4.7876c0-1.3221-1.0922-2.3939-2.4395-2.3939zm6.5055 7.1815v-3.9897h2.8461c1.1228 0 2.033.8931 2.033 1.9948 0 1.1018-.9102 1.9949-2.033 1.9949z" fill-rule="evenodd"/><path d="m98.7052 53.1463c.0486.4412.4287.7851.8905.7851h6.2933l.097-.0052c.449-.0479.798-.422.798-.8758v-2.0439l-.005-.096c-.048-.4414-.429-.785-.89-.785l-2.886.0002-.001-1.15-.006-.096c-.048-.4414-.428-.785-.89-.785h-2.5102l-.0975.0052c-.4489.0478-.7982.4217-.7982.8758l-.0002 4.0747z"/><path d="m28.8538 55.3387c-.0448-.4207-.374-.7134-.8209-.7134h-6.6087l-.1009.0052c-.4278.044-.7251.368-.7251.8074v2.4378l.0052.0994c.0447.4208.374.7132.8208.7132h6.6087l.101-.0051c.4277-.044.7251-.3679.7251-.8075v-2.4378z"/><path d="m56.2172 48.0947c.4467 0 .7761.2927.8209.7134l.0052.0992v2.4378c0 .4396-.2975.7635-.7252.8075l-.1009.0051h-2.8913c-.4467 0-.7761-.2925-.8208-.7133l-.0053-.0993v-2.4378c0-.4394.2975-.7634.7252-.8074l.1009-.0052z"/><path d="m68.7287 48.0947c-.255 0-.4957.1163-.6522.3152l-5.2763 6.7024c-.1056.134-.0089.3294.163.3294h.826c.255 0 .4957-.1163.6522-.3152l5.2763-6.7024c.1056-.134.0089-.3294-.163-.3294z"/><path clip-rule="evenodd" d="m61.108 66.8702h12.9967c2.3642 0 4.1304-1.7454 4.1304-4.0816s-1.7662-4.0816-4.1304-4.0816h-9.4999c-.7435 0-.8868-.6584-.4131-1.2245l6.9572-8.7799c.3222-.3849.8015-.6079 1.3068-.6079h3.1736c.6385 0 .9883.7347.5814 1.2208l-4.1712 5.3098h2.0652c4.4571 0 7.8404 3.0831 8.2244 7.347h.0364v1.6326h-.0364c-.1076 1.1952-.4509 2.2976-.9874 3.2653h9.064c1.369 0 2.4787-1.0964 2.4787-2.4489v-4.898c0-.4508.37-.8163.8263-.8163h2.4787c.4563 0 .8262.3655.8262.8163v4.898c0 .866-.1706 1.6927-.4804 2.4489h2.9472c1.3686 0 2.4786-1.0964 2.4786-2.4489v-4.898c0-.4508.37-.8163.826-.8163h2.479c.456 0 .826.3655.826.8163v4.898c0 .866-.17 1.6927-.48 2.4489h.492c1.369 0 2.479-1.0964 2.479-2.4489v-4.898c0-.4508.37-.8163.826-.8163h2.479c.456 0 .826.3655.826.8163v4.898c0 3.6067-2.959 6.5306-6.61 6.5306h-.794c-.271 0-.525-.1315-.68-.3517l-.851-1.2157c-1.156.9772-2.656 1.5674-4.2966 1.5674h-3.2732c-.2711 0-.525-.1315-.6793-.3517l-.843-1.2031c-1.1534.9697-2.6481 1.5548-4.2812 1.5548h-9.6995c-.2712 0-.525-.1315-.6794-.3517l-.8714-1.2436c-1.3743 1.0112-3.1108 1.5953-5.0507 1.5953h-32.4841c-.2711 0-.525-.1315-.6793-.3517l-.8431-1.2031c-1.1533.9696-2.6481 1.5548-4.2812 1.5548h-22.2071c-3.65054 0-6.6099-2.9239-6.6099-6.5306v-4.898c0-.4508.36992-.8163.82624-.8163h2.47876c.4563 0 .8262.3655.8262.8163v4.898c0 1.3525 1.1098 2.4489 2.4787 2.4489h22.2071c1.369 0 2.4788-1.0964 2.4788-2.4489v-4.898c0-.4508.3699-.8163.8262-.8163h2.4787c.4563 0 .8263.3655.8263.8163v4.898c0 .866-.1707 1.6927-.4805 2.4489h6.9026c-.3098-.7562-.4805-1.5829-.4805-2.4489v-2.449c0-3.6068 2.9594-6.5306 6.61-6.5306 3.6505 0 6.6099 2.9238 6.6099 6.5306v2.449c0 .866-.1706 1.6927-.4805 2.4489zm-3.6507-4.8979v2.449c0 1.3525-1.1098 2.4489-2.4787 2.4489-1.369 0-2.4788-1.0964-2.4788-2.4489v-2.449c0-1.3526 1.1098-2.449 2.4788-2.449 1.3689 0 2.4787 1.0964 2.4787 2.449z" fill-rule="evenodd"/><path d="m15.1277 91.7882c-.4729 0-.8128.3333-.8128.7969v11.1559c0 1.087-.5176 1.594-1.6257 1.594h-4.87635c-.47305 0-.81285.334-.81285.797v2.391c0 .464.3398.797.81285.797h4.87635c3.6578 0 5.6899-1.993 5.6899-5.579v-1.686l.9488 1.343c.1518.215.4016.343.6684.343h20.631c1.6308 0 3.1215-.588 4.2631-1.56l1.2463 1.56h24.5067c2.4194 0 4.5172-.915 5.9754-2.435l1.4779 2.092c.1519.215.4017.343.6685.343h20.9097c3.5921 0 6.5041-2.854 6.5041-6.3746v-4.7813c0-.4401-.364-.7969-.813-.7969h-2.439c-.449 0-.813.3568-.813.7969v4.7813c0 1.3203-1.092 2.3906-2.4391 2.3906h-21.9104c.5279-.9446.8657-2.0208.9716-3.1875h.0359v-.7969c0-4.5696-3.4675-7.9688-8.1286-7.9688h-2.0321l4.1044-5.1834c.4003-.4745.0561-1.1917-.5721-1.1917h-3.1227c-.4973 0-.9689.2176-1.286.5934l-6.8457 8.5708c-.4661.5527-.3251 1.1953.4064 1.1953h9.3478c2.3263 0 4.0643 1.7038 4.0643 3.9844s-1.738 3.9844-4.0643 3.9844h-23.9849c.3049-.7382.4728-1.5452.4728-2.3906v-4.7813c0-.4401-.364-.7969-.813-.7969h-2.439c-.449 0-.813.3568-.813.7969v4.7813c0 1.3203-1.092 2.3906-2.439 2.3906h-22.2482v-7.1719c0-.4636-.3398-.7969-.8128-.7969z"/><path d="m35.3325 106.73c-.0441-.41-.3681-.696-.8078-.696h-6.5028l-.0993.005c-.421.043-.7135.359-.7135.788v2.38l.0051.097c.044.411.368.696.8077.696h6.5028l.0994-.005c.4209-.043.7135-.359.7135-.788v-2.38z"/><path d="m17.5693 83.8194c.4395 0 .7636.2856.8077.6963l.0051.0969v2.3797c0 .4292-.2927.7453-.7135.7883l-.0993.005h-2.4394c-.4395 0-.7636-.2855-.8077-.6963l-.0051-.097v-2.3797c0-.429.2927-.7452.7135-.7882l.0993-.005z"/><path d="m100.112 83.8194c.44 0 .764.2856.808.6963l.005.0969v2.3797c0 .4292-.293.7453-.714.7883l-.099.005h-2.845c-.4396 0-.7637-.2855-.8078-.6963l-.0051-.097v-2.3797c0-.429.2927-.7452.7135-.7882l.0994-.005z"/><path d="m65.3535 81.4287c-.2509 0-.4877.1135-.6418.3077l-5.1918 6.5427c-.1038.1309-.0087.3216.1605.3216h.8128c.2509 0 .4877-.1136.6417-.3077l5.1918-6.5428c.1039-.1308.0087-.3215-.1604-.3215z"/><path d="m108.649 83.8194c0-.4401.364-.7969.813-.7969h2.439c.449 0 .813.3568.813.7969v19.1256c0 .44-.364.796-.813.796h-2.439c-.449 0-.813-.356-.813-.796z"/></g></svg>