<svg enable-background="new 0 0 512 512" viewBox="0 0 512 512" xmlns="http://www.w3.org/2000/svg"><path d="m305.865 72.35c-1.373-10.174-6.619-19.203-14.78-25.428-16.865-12.86-41.025-9.598-53.864 7.25-9.114 11.942-21.023 44.931-28.95 68.903-7.926-23.972-19.836-56.961-28.95-68.903-12.848-16.852-37.008-20.101-53.864-7.25-8.161 6.224-13.406 15.255-14.78 25.428-1.365 10.174 1.305 20.272 7.534 28.432 14.22 18.652 78.559 54.627 85.855 58.665 1.314.729 2.763 1.089 4.203 1.089 1.437 0 2.816-.473 4.1-1.173l.103.084c7.297-4.039 71.636-40.013 85.855-58.665 6.233-8.16 8.902-18.258 7.538-28.432zm-173.857 17.907c-3.415-4.475-4.881-10.012-4.127-15.593s3.627-10.53 8.102-13.944c3.814-2.903 8.296-4.31 12.754-4.31 6.356 0 12.644 2.856 16.789 8.289 7.695 10.089 19.703 43.737 27.822 68.615-25.288-14.925-54.153-33.629-61.34-43.057zm152.526 0c-7.186 9.42-36.043 28.127-61.339 43.051 8.118-24.873 20.127-58.521 27.822-68.61 4.144-5.432 10.432-8.289 16.789-8.289 4.45 0 8.949 1.407 12.754 4.31 4.475 3.415 7.347 8.364 8.102 13.944.755 5.581-.713 11.119-4.128 15.594z" fill="#00c3ff"/><path d="m208.271 169.214c-1.093 0-2.187-.207-3.221-.618l-108.475-43.39c-4.45-1.784-6.619-6.831-4.839-11.284s6.873-6.597 11.279-4.835l105.255 42.101 105.254-42.102c4.407-1.758 9.5.382 11.279 4.835s-.389 9.5-4.839 11.284l-108.475 43.39c-1.031.412-2.124.619-3.218.619z" fill="#00aaf0"/><path d="m477.288 299.384h-104.135v121.492h130.169c4.792 0 8.678-3.886 8.678-8.678v-78.102c0-19.171-15.541-34.712-34.712-34.712z" fill="#00aaf0"/><path d="m373.153 316.74h104.136c9.586 0 17.356 7.77 17.356 17.356v86.78h-121.492z" fill="#0096dc"/><path d="m493.954 420.875c-4.221-29.427-29.462-52.068-60.056-52.068s-55.835 22.641-60.056 52.068z" fill="#007dc8"/><path d="m442.576 195.248h-69.424v34.712h91.119c2.396 0 4.339-1.943 4.339-4.339v-4.339c0-14.378-11.655-26.034-26.034-26.034z" fill="#00aaf0"/><path d="m364.475 160.536h-312.407c-4.792 0-8.678 3.886-8.678 8.678v173.559h-17.356c-4.797 0-8.678 3.886-8.678 8.678s3.881 8.678 8.678 8.678h52.068c4.797 0 8.678 3.886 8.678 8.678s-3.881 8.678-8.678 8.678h-34.712v34.712c0 4.792 3.886 8.678 8.678 8.678h321.085v-251.661c0-4.792-3.886-8.678-8.678-8.678z" fill="#00c3ff"/><path d="m178.501 377.486c-9.087-5.427-19.619-8.678-30.976-8.678s-21.889 3.251-30.976 8.678h-107.871c-4.797 0-8.678 3.886-8.678 8.678s3.881 8.678 8.678 8.678h34.712v17.356c0 4.792 3.886 8.678 8.678 8.678h321.085v-43.39z" fill="#00aaf0"/><circle cx="433.898" cy="429.55" fill="#5b5d6e" r="43.39"/><circle cx="147.525" cy="429.55" fill="#5b5d6e" r="43.39"/><path d="m477.288 299.384-17.356-69.424h-86.779v69.424z" fill="#b4e6ff"/><circle cx="147.525" cy="429.55" fill="#c7cfe2" r="26.034"/><circle cx="147.525" cy="429.55" fill="#7f8499" r="8.678"/><circle cx="433.898" cy="429.55" fill="#c7cfe2" r="26.034"/><circle cx="433.898" cy="429.55" fill="#7f8499" r="8.678"/><path d="m407.864 247.316h56.407l-4.339-17.356h-86.78v69.424h26.034v-43.39c0-4.792 3.886-8.678 8.678-8.678z" fill="#9bd6ff"/><path d="m373.153 212.604h69.424c4.792 0 8.678 3.886 8.678 8.678v8.678h-78.102z" fill="#0096dc"/><path d="m485.966 334.092h26.034v34.712h-26.034z" fill="#f1f4fb"/><path d="m468.61 334.096v17.356c0 9.585 7.771 17.356 17.356 17.356h8.678v-34.712z" fill="#ffc850"/><g fill="#fff"><path d="m130.169 221.282h-34.711c-4.797 0-8.678 3.881-8.678 8.678v69.424c0 4.797 3.881 8.678 8.678 8.678s8.678-3.881 8.678-8.678v-26.034h17.356c4.797 0 8.678-3.881 8.678-8.678s-3.881-8.678-8.678-8.678h-17.356v-17.356h26.034c4.797 0 8.678-3.881 8.678-8.678s-3.882-8.678-8.679-8.678z"/><path d="m208.271 251.655c0-16.746-13.628-30.373-30.373-30.373h-21.695c-4.797 0-8.678 3.881-8.678 8.678v69.424c0 4.797 3.881 8.678 8.678 8.678s8.678-3.881 8.678-8.678v-17.356h12.712l14.78 22.17c1.669 2.509 4.424 3.865 7.229 3.865 1.652 0 3.323-.475 4.805-1.458 3.992-2.661 5.068-8.042 2.407-12.034l-11.868-17.802c8.033-5.471 13.325-14.684 13.325-25.114zm-43.39-13.017h13.017c7.178 0 13.017 5.839 13.017 13.017s-5.839 13.017-13.017 13.017h-13.017z"/><path d="m260.339 238.638c4.797 0 8.678-3.881 8.678-8.678s-3.881-8.678-8.678-8.678h-34.712c-4.797 0-8.678 3.881-8.678 8.678v69.424c0 4.797 3.881 8.678 8.678 8.678h34.712c4.797 0 8.678-3.881 8.678-8.678s-3.881-8.678-8.678-8.678h-26.034v-17.356h17.356c4.797 0 8.678-3.881 8.678-8.678s-3.881-8.678-8.678-8.678h-17.356v-17.356z"/><path d="m321.085 290.706h-26.034v-17.356h8.678c4.797 0 8.678-3.881 8.678-8.678s-3.881-8.678-8.678-8.678h-8.678v-17.356h26.034c4.797 0 8.678-3.881 8.678-8.678s-3.881-8.678-8.678-8.678h-34.712c-4.797 0-8.678 3.881-8.678 8.678v69.424c0 4.797 3.881 8.678 8.678 8.678h34.712c4.797 0 8.678-3.881 8.678-8.678s-3.881-8.678-8.678-8.678z"/></g></svg>